<svg width="1200" height="800" viewBox="0 0 1200 800" fill="none" xmlns="http://www.w3.org/2000/svg">
  <rect width="1200" height="800" rx="48" fill="#090D13"/>
  <rect x="48" y="48" width="1104" height="704" rx="36" fill="url(#paint0_linear)" stroke="rgba(255,255,255,0.08)"/>
  <circle cx="980" cy="180" r="170" fill="#FF375F" fill-opacity="0.12"/>
  <circle cx="220" cy="610" r="210" fill="#00E5FF" fill-opacity="0.10"/>
  <rect x="116" y="126" width="968" height="548" rx="28" fill="#0D1117" stroke="rgba(255,255,255,0.08)"/>
  <rect x="158" y="170" width="190" height="18" rx="9" fill="#00E5FF" fill-opacity="0.82"/>
  <rect x="158" y="202" width="130" height="10" rx="5" fill="white" fill-opacity="0.14"/>
  <rect x="158" y="258" width="292" height="356" rx="24" fill="#060810" stroke="rgba(255,255,255,0.08)"/>
  <rect x="198" y="304" width="210" height="16" rx="8" fill="#FF375F" fill-opacity="0.76"/>
  <rect x="198" y="338" width="154" height="12" rx="6" fill="white" fill-opacity="0.16"/>
  <rect x="198" y="368" width="180" height="12" rx="6" fill="white" fill-opacity="0.12"/>
  <rect x="198" y="430" width="214" height="126" rx="18" fill="#0F1520" stroke="rgba(0,229,255,0.16)"/>
  <rect x="224" y="454" width="164" height="12" rx="6" fill="white" fill-opacity="0.18"/>
  <rect x="224" y="482" width="120" height="12" rx="6" fill="white" fill-opacity="0.12"/>
  <rect x="224" y="510" width="144" height="12" rx="6" fill="white" fill-opacity="0.12"/>
  <rect x="480" y="258" width="274" height="356" rx="24" fill="#060810" stroke="rgba(255,255,255,0.08)"/>
  <rect x="522" y="304" width="144" height="16" rx="8" fill="#BF5AF2" fill-opacity="0.78"/>
  <rect x="522" y="338" width="190" height="12" rx="6" fill="white" fill-opacity="0.14"/>
  <rect x="522" y="368" width="156" height="12" rx="6" fill="white" fill-opacity="0.12"/>
  <rect x="522" y="430" width="194" height="126" rx="18" fill="#0F1520" stroke="rgba(191,90,242,0.16)"/>
  <rect x="548" y="454" width="146" height="12" rx="6" fill="white" fill-opacity="0.18"/>
  <rect x="548" y="482" width="110" height="12" rx="6" fill="white" fill-opacity="0.12"/>
  <rect x="548" y="510" width="130" height="12" rx="6" fill="white" fill-opacity="0.12"/>
  <rect x="788" y="258" width="250" height="356" rx="24" fill="#060810" stroke="rgba(255,255,255,0.08)"/>
  <rect x="832" y="308" width="156" height="16" rx="8" fill="#00E5FF" fill-opacity="0.78"/>
  <rect x="832" y="344" width="112" height="12" rx="6" fill="white" fill-opacity="0.14"/>
  <rect x="832" y="372" width="160" height="12" rx="6" fill="white" fill-opacity="0.12"/>
  <rect x="832" y="430" width="160" height="126" rx="18" fill="#0F1520" stroke="rgba(255,255,255,0.10)"/>
  <rect x="856" y="454" width="110" height="12" rx="6" fill="white" fill-opacity="0.18"/>
  <rect x="856" y="482" width="124" height="12" rx="6" fill="white" fill-opacity="0.12"/>
  <rect x="856" y="510" width="92" height="12" rx="6" fill="white" fill-opacity="0.12"/>
  <rect x="158" y="642" width="240" height="14" rx="7" fill="#00E5FF" fill-opacity="0.22"/>
  <rect x="420" y="642" width="192" height="14" rx="7" fill="#BF5AF2" fill-opacity="0.22"/>
  <rect x="634" y="642" width="158" height="14" rx="7" fill="#FF375F" fill-opacity="0.22"/>
  <defs>
    <linearGradient id="paint0_linear" x1="48" y1="48" x2="1152" y2="752" gradientUnits="userSpaceOnUse">
      <stop stop-color="#101520"/>
      <stop offset="1" stop-color="#060810"/>
    </linearGradient>
  </defs>
</svg>
